# Blender v2.77 (sub 0) OBJ File: 'aquarium.blend'
# www.blender.org
mtllib aquarium-glass.mtl
o aquarium-glass.001_Cube.003
v 144.133057 -93.356468 61.148685
v 144.133057 -93.356445 -61.148712
v 144.133133 -71.590851 -61.148682
v 144.133072 -69.868843 -30.678057
v 144.133041 -72.738853 0.000021
v 144.132996 -77.330879 30.678102
v 144.132965 -75.034882 61.148727
v -144.133072 -93.356468 61.148674
v 72.170174 -81.348900 61.148712
v -0.000075 -77.330887 61.148697
v -72.170326 -73.312874 61.148682
v -144.133118 -75.034882 61.148670
v -144.132996 -93.356445 -61.148739
v -144.133102 -76.182877 30.678049
v -144.133072 -77.330879 -0.000025
v -144.133057 -72.928474 -30.678099
v -144.133041 -71.016838 -61.148712
v -72.170235 -76.756859 -61.148701
v 0.000037 -73.886848 -61.148693
v 72.170319 -69.868843 -61.148689
v -72.170296 -70.442856 30.678066
v 72.170212 -73.466759 30.678091
v -0.000046 -75.034874 30.678078
v 72.170273 -75.034866 -30.678070
v 0.000012 -75.034866 -30.678074
v -0.000017 -75.034874 0.000000
v 72.170242 -73.466751 0.000013
v -72.170258 -72.738846 -30.678085
v -72.170273 -75.034874 -0.000012
vt 0.8887 0.3450
vt 0.4064 0.5880
vt -0.0758 0.3450
vt 1.7950 0.3376
vt 1.1435 0.5002
vt -0.8109 0.3376
vt -0.0758 0.3450
vt 0.4064 0.5339
vt 0.8887 0.3450
vt 0.4921 0.6012
vt 1.7950 0.3376
vt -0.8109 0.3376
vt 1.5052 1.1925
vt -0.5686 -0.1298
vt 1.5052 -0.1298
vt -0.8132 0.0279
vt -0.1599 -0.3886
vt -0.1599 0.0279
vt 1.1465 0.0279
vt 0.4933 -0.3886
vt 1.1465 -0.3886
vt 1.1465 0.8609
vt 0.4933 0.4444
vt 1.1465 0.4444
vt -0.8132 0.8609
vt -0.1599 0.4444
vt -0.1599 0.8609
vt 0.4933 0.8609
vt 0.4933 1.2774
vt -0.8132 1.2774
vt -0.1599 1.2774
vt 1.7997 0.4444
vt 1.7997 0.8609
vt 1.1465 1.2774
vt 1.7997 1.2774
vt 1.7997 -0.3886
vt 1.7997 0.0279
vt 0.4933 0.0279
vt -0.0758 0.5610
vt 0.1653 0.5339
vt 0.8887 0.6016
vt 0.6476 0.6219
vt -0.8109 0.5857
vt -0.1594 0.6090
vt 1.7950 0.5857
vt 0.4921 0.5546
vt 0.8887 0.6083
vt 0.6476 0.5858
vt -0.0758 0.5610
vt 0.1653 0.5474
vt -0.8109 0.6401
vt -0.1594 0.5623
vt 1.1436 0.6556
vt 1.7950 0.6323
vt -0.5686 1.1925
vt -0.8132 -0.3886
vt -0.8132 0.4444
vn 1.0000 0.0000 0.0000
vn -0.0000 -0.0000 1.0000
vn -1.0000 -0.0000 -0.0000
vn 0.0000 0.0000 -1.0000
vn 0.0000 -1.0000 -0.0000
vn -0.0792 0.9925 0.0935
vn 0.0538 0.9667 0.2501
vn -0.0217 0.9985 -0.0510
vn -0.0026 0.9972 0.0746
vn -0.0000 1.0000 0.0000
vn 0.0318 0.9988 0.0376
vn 0.0788 0.9883 -0.1303
vn -0.0713 0.9931 0.0929
vn 0.0239 0.9981 -0.0564
vn -0.0548 0.9844 0.1669
vn 0.0535 0.9957 -0.0750
vn 0.0530 0.9876 0.1478
vn -0.0217 0.9998 0.0000
vn 0.0554 0.9956 0.0750
vn -0.0786 0.9859 -0.1476
vn -0.0239 0.9990 -0.0376
vn -0.0217 0.9969 0.0751
vn -0.0316 0.9894 0.1420
vn 0.0317 0.9967 0.0746
vn -0.0394 0.9906 -0.1306
vn -0.0026 0.9980 0.0626
vn -0.0101 0.9986 -0.0510
vn -0.0706 0.9835 0.1667
vn -0.0000 0.9993 0.0376
vn -0.0846 0.9647 0.2495
vn -0.0101 0.9999 0.0000
vn 0.0632 0.9936 0.0936
vn 0.0628 0.9870 -0.1477
vn -0.0319 0.9988 -0.0374
g aquarium-glass.001_Cube.003_aquarium-glass.001_Cube.003_soil
usemtl soil
s off
f 2/1/1 5/2/1 1/3/1
f 1/4/2 9/5/2 8/6/2
f 8/7/3 15/8/3 13/9/3
f 19/10/4 2/11/4 13/12/4
f 1/13/5 13/14/5 2/15/5
f 14/16/6 11/17/6 21/18/6
f 22/19/7 10/20/7 9/21/7
f 24/22/8 26/23/8 27/24/8
f 16/25/9 29/26/9 28/27/9
f 25/28/10 29/26/10 26/23/10
f 19/29/11 28/27/11 25/28/11
f 17/30/12 28/27/12 18/31/12
f 24/22/13 5/32/13 4/33/13
f 20/34/14 4/33/14 3/35/14
f 19/29/15 24/22/15 20/34/15
f 22/19/16 7/36/16 6/37/16
f 5/32/17 22/19/17 6/37/17
f 26/23/18 22/19/18 27/24/18
f 23/38/19 11/17/19 10/20/19
f 29/26/10 23/38/10 26/23/10
f 29/26/20 14/16/20 21/18/20
f 7/39/1 1/3/1 6/40/1
f 2/1/1 3/41/1 4/42/1
f 4/42/1 5/2/1 2/1/1
f 6/40/1 1/3/1 5/2/1
f 12/43/2 8/6/2 11/44/2
f 1/4/2 7/45/2 9/5/2
f 9/5/2 10/46/2 8/6/2
f 11/44/2 8/6/2 10/46/2
f 17/47/3 13/9/3 16/48/3
f 8/7/3 12/49/3 14/50/3
f 15/8/3 16/48/3 13/9/3
f 8/7/3 14/50/3 15/8/3
f 13/12/4 17/51/4 18/52/4
f 19/10/4 20/53/4 2/11/4
f 13/12/4 18/52/4 19/10/4
f 3/54/4 2/11/4 20/53/4
f 1/13/5 8/55/5 13/14/5
f 14/16/21 12/56/21 11/17/21
f 22/19/22 23/38/22 10/20/22
f 24/22/10 25/28/10 26/23/10
f 16/25/23 15/57/23 29/26/23
f 25/28/24 28/27/24 29/26/24
f 19/29/25 18/31/25 28/27/25
f 17/30/26 16/25/26 28/27/26
f 24/22/27 27/24/27 5/32/27
f 20/34/28 24/22/28 4/33/28
f 19/29/29 25/28/29 24/22/29
f 22/19/30 9/21/30 7/36/30
f 5/32/31 27/24/31 22/19/31
f 26/23/18 23/38/18 22/19/18
f 23/38/32 21/18/32 11/17/32
f 29/26/33 21/18/33 23/38/33
f 29/26/34 15/57/34 14/16/34
o aquarium-glass.002_Cube.009
v 144.343643 50.495728 -61.357422
v 144.343475 50.495708 61.357506
v 144.343475 -93.337570 61.357483
v 144.343643 -93.337547 -61.357445
v -144.343552 -93.337547 -61.357479
v -144.343552 50.495728 -61.357452
v -144.343628 50.495708 61.357445
v -144.343628 -93.337570 61.357422
vt 1.0000 0.0000
vt 0.0000 1.0000
vt 0.0000 0.0000
vt 1.0000 0.0000
vt 0.0000 1.0000
vt 1.0000 0.0000
vt 0.0000 1.0000
vt 0.0000 0.0000
vt 1.0000 0.0000
vt 0.0000 1.0000
vt 0.0000 0.0000
vt 0.0000 1.0000
vt 1.0000 0.0000
vt 0.0000 1.0000
vt 0.0000 0.0000
vt 1.0000 1.0000
vt 1.0000 1.0000
vt 1.0000 1.0000
vt 1.0000 1.0000
vn 1.0000 0.0000 0.0000
vn 0.0000 0.0000 -1.0000
vn -0.0000 -0.0000 1.0000
vn -1.0000 -0.0000 -0.0000
vn -0.0000 1.0000 0.0000
vn 0.0000 -1.0000 -0.0000
g aquarium-glass.002_Cube.009_aquarium-glass.002_Cube.009_water
usemtl water
s off
f 31/58/35 33/59/35 30/60/35
f 33/61/36 35/62/36 30/60/36
f 36/63/37 32/64/37 31/65/37
f 35/66/38 37/67/38 36/68/38
f 35/66/39 31/69/39 30/60/39
f 32/70/40 34/71/40 33/72/40
f 31/58/35 32/73/35 33/59/35
f 33/61/36 34/74/36 35/62/36
f 36/63/37 37/75/37 32/64/37
f 35/66/38 34/74/38 37/67/38
f 35/66/39 36/76/39 31/69/39
f 32/70/40 37/75/40 34/71/40
o aquarium-glass_Cube
v 145.221115 -93.356461 -62.237633
v 145.221176 51.864723 -62.237579
v 145.221024 51.864700 62.237667
v 145.221115 -93.356483 62.237606
v -145.221161 51.864700 62.237606
v -145.221130 -93.356483 62.237595
v -145.221100 51.864723 -62.237614
v -145.221069 -93.356461 -62.237659
v 144.343597 -93.356476 61.357456
v 144.343491 51.864689 61.357513
v 144.343658 51.864708 -61.357426
v 144.343597 -93.356453 -61.357483
v -144.343613 -93.356476 61.357445
v -144.343643 51.864689 61.357456
v -144.343536 -93.356453 -61.357506
v -144.343567 51.864708 -61.357460
vt 1.0000 0.0000
vt 0.0000 1.0000
vt 0.0000 0.0000
vt 1.0000 0.0000
vt 0.0000 1.0000
vt 0.0000 0.0000
vt 1.0000 0.0000
vt 0.0000 1.0000
vt 0.0000 0.0000
vt 1.0000 0.0000
vt 0.0000 1.0000
vt 0.0000 0.0000
vt 0.0000 0.0000
vt 1.0000 1.0000
vt 0.0000 1.0000
vt 0.0000 0.0000
vt 1.0000 1.0000
vt 0.0000 1.0000
vt 0.0000 0.0000
vt 1.0000 1.0000
vt 0.0000 1.0000
vt 0.0000 0.0000
vt 1.0000 1.0000
vt 0.0000 1.0000
vt 1.0000 0.0000
vt 0.0000 1.0000
vt 0.0000 0.0000
vt 1.0000 0.0000
vt 1.0000 0.0000
vt 0.0000 0.0000
vt 0.0000 1.0000
vt 1.0000 0.0000
vt 0.0000 0.0000
vt 0.0000 1.0000
vt 0.0000 1.0000
vt 0.0000 0.0000
vt 1.0000 1.0000
vt 1.0000 1.0000
vt 1.0000 1.0000
vt 1.0000 1.0000
vt 1.0000 0.0000
vt 1.0000 0.0000
vt 1.0000 0.0000
vt 1.0000 0.0000
vt 1.0000 1.0000
vt 1.0000 1.0000
vt 1.0000 1.0000
vt 1.0000 1.0000
vn 1.0000 -0.0000 -0.0000
vn -0.0000 -0.0000 1.0000
vn -1.0000 -0.0000 -0.0000
vn 0.0000 0.0000 -1.0000
vn -0.0000 -1.0000 -0.0000
vn -0.0000 1.0000 0.0000
g aquarium-glass_Cube_aquarium-glass_Cube_glass
usemtl glass
s off
f 39/77/41 41/78/41 38/79/41
f 40/80/42 43/81/42 41/82/42
f 42/83/43 45/84/43 43/85/43
f 38/86/44 44/87/44 39/88/44
f 46/89/43 48/90/43 49/91/43
f 50/92/44 47/93/44 46/94/44
f 52/95/41 51/96/41 50/97/41
f 53/98/42 49/99/42 48/100/42
f 41/101/45 49/91/45 38/79/45
f 38/86/45 52/102/45 45/103/45
f 43/104/45 46/94/45 41/82/45
f 45/105/45 50/97/45 43/85/45
f 40/106/46 48/90/46 47/107/46
f 44/108/46 48/100/46 39/88/46
f 42/109/46 47/93/46 51/110/46
f 42/83/46 53/111/46 44/112/46
f 39/77/41 40/113/41 41/78/41
f 40/80/42 42/114/42 43/81/42
f 42/83/43 44/115/43 45/84/43
f 38/86/44 45/116/44 44/87/44
f 46/89/43 47/117/43 48/90/43
f 50/92/44 51/118/44 47/93/44
f 52/95/41 53/119/41 51/96/41
f 53/98/42 52/120/42 49/99/42
f 41/101/45 46/121/45 49/91/45
f 38/86/45 49/99/45 52/102/45
f 43/104/45 50/122/45 46/94/45
f 45/105/45 52/123/45 50/97/45
f 40/106/46 39/77/46 48/90/46
f 44/108/46 53/124/46 48/100/46
f 42/109/46 40/80/46 47/93/46
f 42/83/46 51/96/46 53/111/46
